<svg width="44" height="44" viewBox="0 0 44 44" fill="none" xmlns="http://www.w3.org/2000/svg">
<g clip-path="url(#clip0_1435_1447)">
<path d="M22 28.3594C14.1825 28.3594 7.82031 21.9984 7.82031 14.1797C7.82031 6.36101 14.1825 0 22 0C29.8175 0 36.1797 6.36101 36.1797 14.1797C36.1797 21.9984 29.8175 28.3594 22 28.3594Z" fill="#FFEA80"/>
<path d="M36.1797 14.1797C36.1797 6.36101 29.8175 0 22 0V28.3594C29.8175 28.3594 36.1797 21.9984 36.1797 14.1797Z" fill="#FFCC66"/>
<path d="M25.8672 16.7578C25.8672 18.4337 24.7845 19.8516 23.2891 20.3929V21.9141C23.2891 22.636 22.722 23.2031 22 23.2031C21.278 23.2031 20.7109 22.636 20.7109 21.9141V20.3673C20.0148 20.1352 19.3702 19.697 18.9063 19.0782C18.468 18.5109 18.5966 17.7117 19.1641 17.2735C19.7312 16.8609 20.5302 16.9641 20.9687 17.5312C21.2264 17.8664 21.6132 17.9953 22 17.9953C22.6445 17.9695 23.2891 17.4798 23.2891 16.7579C23.2891 16.036 22.722 15.4688 22 15.4688C19.86 15.4688 18.1328 13.7416 18.1328 11.6016C18.1328 9.92578 19.2155 8.5079 20.7109 7.96658V6.44531C20.7109 5.72335 21.278 5.15625 22 5.15625C22.722 5.15625 23.2891 5.72335 23.2891 6.44531V7.9921C23.9852 8.22422 24.6298 8.66241 25.0937 9.28116C25.532 9.84844 25.4034 10.6477 24.8359 11.0859C24.2688 11.524 23.4698 11.3952 23.0313 10.8281C22.7736 10.493 22.4123 10.3125 22 10.3125C21.278 10.3125 20.7109 10.8796 20.7109 11.6016C20.7109 12.3235 21.278 12.8906 22 12.8906C24.14 12.8906 25.8672 14.6179 25.8672 16.7578Z" fill="#FFCC66"/>
<path d="M25.8672 16.7578C25.8672 18.4337 24.7845 19.8516 23.2891 20.3929V21.9141C23.2891 22.636 22.722 23.2031 22 23.2031V17.9952C22.6445 17.9694 23.2891 17.4797 23.2891 16.7578C23.2891 16.0359 22.722 15.4688 22 15.4688V12.8906C24.14 12.8906 25.8672 14.6179 25.8672 16.7578Z" fill="#FFA54D"/>
<path d="M24.8358 11.0859C24.2687 11.5241 23.4697 11.3953 23.0312 10.8282C22.7735 10.4931 22.4122 10.3126 21.9999 10.3126V5.15625C22.7218 5.15625 23.2889 5.72335 23.2889 6.44531V7.9921C23.9851 8.22422 24.6297 8.66241 25.0935 9.28116C25.532 9.84844 25.4033 10.6477 24.8358 11.0859Z" fill="#FFA54D"/>
<path d="M18.0346 37.0612C17.8357 36.579 17.3649 36.2656 16.8437 36.2656H14.2656V29.6484C14.2656 28.9364 13.6885 28.3594 12.9766 28.3594H10.3984C9.68653 28.3594 9.10937 28.9364 9.10937 29.6484V36.2656H6.53125C6.01012 36.2656 5.53927 36.579 5.34041 37.0612C5.14026 37.5433 5.25104 38.0973 5.61988 38.4661L10.7761 43.6224C11.0279 43.8742 11.3578 44.0001 11.6875 44.0001C12.0172 44.0001 12.3472 43.8742 12.5989 43.6224L17.7551 38.4661C18.124 38.0972 18.2348 37.5433 18.0346 37.0612Z" fill="#FF5959"/>
<path d="M38.6596 37.0612C38.4607 36.579 37.9899 36.2656 37.4687 36.2656H34.8906V29.6484C34.8906 28.9364 34.3135 28.3594 33.6016 28.3594H31.0234C30.3115 28.3594 29.7344 28.9364 29.7344 29.6484V36.2656H27.1562C26.6351 36.2656 26.1643 36.579 25.9654 37.0612C25.7653 37.5433 25.876 38.0973 26.2449 38.4661L31.4011 43.6224C31.6529 43.8742 31.9828 44.0001 32.3125 44.0001C32.6422 44.0001 32.9722 43.8742 33.2239 43.6224L38.3801 38.4661C38.749 38.0972 38.8598 37.5433 38.6596 37.0612V37.0612Z" fill="#FF5959"/>
<path d="M17.7551 38.4661C18.124 38.0972 18.2347 37.5433 18.0346 37.0611C17.8357 36.579 17.3649 36.2656 16.8438 36.2656H14.2656V29.6484C14.2656 28.9364 13.6885 28.3594 12.9766 28.3594H11.6875V44C12.0173 44 12.3472 43.8741 12.5989 43.6223L17.7551 38.4661Z" fill="#E63A57"/>
<path d="M38.3801 38.4661C38.749 38.0972 38.8597 37.5433 38.6596 37.0611C38.4607 36.579 37.9899 36.2656 37.4688 36.2656H34.8906V29.6484C34.8906 28.9364 34.3135 28.3594 33.6016 28.3594H32.3125V44C32.6423 44 32.9722 43.8741 33.2239 43.6223L38.3801 38.4661Z" fill="#E63A57"/>
</g>
<defs>
<clipPath id="clip0_1435_1447">
<rect width="44" height="44" fill="white"/>
</clipPath>
</defs>
</svg>
