<svg width="44" height="44" viewBox="0 0 44 44" fill="none" xmlns="http://www.w3.org/2000/svg">
<g clip-path="url(#clip0_1479_1626)">
<path d="M16.4561 27.5437L13.7219 24.8096L1.13107 37.3978C-0.377024 38.9059 -0.377024 41.3581 1.13107 42.8662C2.64338 44.3785 5.08853 44.3771 6.59946 42.8662L19.1903 30.278L16.4561 27.5437Z" fill="#FFEA80"/>
<path d="M6.59937 42.8663L19.1902 30.2781L16.4561 27.5439L1.13098 42.8664C2.64337 44.3786 5.08852 44.3772 6.59937 42.8663Z" fill="#FFCC66"/>
<path d="M27.2418 33.508C36.4923 33.508 43.9914 26.0089 43.9914 16.7584C43.9914 7.50784 36.4923 0.00878906 27.2418 0.00878906C17.9912 0.00878906 10.4922 7.50784 10.4922 16.7584C10.4922 26.0089 17.9912 33.508 27.2418 33.508Z" fill="#596C76"/>
<path d="M39.0856 28.6025C45.6402 22.0479 45.6362 11.4657 39.0856 4.91504L15.3981 28.6025C21.9527 35.1571 32.5349 35.1532 39.0856 28.6025Z" fill="#465A61"/>
<path d="M27.2418 30.9317C35.0693 30.9317 41.4147 24.5863 41.4147 16.7588C41.4147 8.93135 35.0693 2.58594 27.2418 2.58594C19.4144 2.58594 13.069 8.93135 13.069 16.7588C13.069 24.5863 19.4144 30.9317 27.2418 30.9317Z" fill="white"/>
<path d="M37.2635 26.7798C42.8062 21.2371 42.8096 12.2824 37.2635 6.73633L17.2201 26.7798C22.7627 32.3224 31.7175 32.3259 37.2635 26.7798Z" fill="#D8EBFB"/>
<path d="M33.687 23.204H29.8199L27.2418 21.461V15.4697H33.687C34.3989 15.4697 34.9761 16.0469 34.9761 16.7588V21.915C34.9761 22.6268 34.3989 23.204 33.687 23.204Z" fill="#FFCC66"/>
<path d="M20.7966 12.8916C20.0847 12.8916 19.5076 13.4687 19.5076 14.1806V21.9149C19.5076 22.6268 20.0847 23.204 20.7966 23.204H24.6637L27.2418 21.4065V16.7587V12.8916H20.7966Z" fill="#42A2F5"/>
<path d="M27.2419 21.4066V16.7588L20.7966 23.204H24.6638L27.2419 21.4066Z" fill="#0A6DC2"/>
<path d="M28.5308 7.73535H25.9527C25.2408 7.73535 24.6637 8.3125 24.6637 9.0244V19.3368V23.2039H29.8199V14.1806V9.0244C29.8199 8.3125 29.2427 7.73535 28.5308 7.73535Z" fill="#FF5959"/>
<path d="M29.8199 23.204V14.1807L24.6637 19.3368V23.204H29.8199Z" fill="#E63A57"/>
</g>
<defs>
<clipPath id="clip0_1479_1626">
<rect width="44" height="44" fill="white"/>
</clipPath>
</defs>
</svg>
