<svg width="44" height="44" viewBox="0 0 44 44" fill="none" xmlns="http://www.w3.org/2000/svg">
<g clip-path="url(#clip0_1459_1464)">
<path d="M35.8354 16.36C35.6239 7.30263 28.1903 0 19.0825 0C9.84252 0 2.32471 7.51781 2.32471 16.7578C2.32471 21.3237 4.1966 25.6969 7.48096 28.8503V44H19.0825H25.5278V36.0938H31.9731C34.1056 36.0938 35.8403 34.359 35.8403 32.2266V27.8671L41.6754 24.9919L35.8354 16.36Z" fill="#FFDDCC"/>
<path d="M25.5278 36.0938H31.9731C34.1056 36.0938 35.8403 34.359 35.8403 32.2266V27.8671L41.6754 24.9919L35.8353 16.36C35.6239 7.30263 28.1903 0 19.0825 0V44H25.5278V36.0938Z" fill="#FFCCB3"/>
<path d="M23.5942 7.73438C21.4479 7.73438 19.9876 8.79562 19.0825 9.80899C18.1774 8.79562 16.7172 7.73438 14.5708 7.73438C11.3179 7.73438 8.77002 10.4283 8.77002 13.8675C8.77002 17.5446 11.6125 19.9163 15.914 23.5078C16.6466 24.1196 17.4259 24.7692 18.2441 25.4703L19.0825 26.1904L19.9209 25.4703C20.7391 24.7692 21.5184 24.1196 22.251 23.5078C26.5526 19.9163 29.395 17.5446 29.395 13.8675C29.395 10.4283 26.8471 7.73438 23.5942 7.73438Z" fill="#FF6680"/>
<path d="M22.251 23.5078C26.5526 19.9163 29.395 17.5446 29.395 13.8675C29.395 10.4283 26.8471 7.73438 23.5942 7.73438C21.4479 7.73438 19.9876 8.79562 19.0825 9.80899V26.1904L19.9209 25.4703C20.7392 24.7692 21.5184 24.1196 22.251 23.5078Z" fill="#E64560"/>
</g>
<defs>
<clipPath id="clip0_1459_1464">
<rect width="44" height="44" fill="white"/>
</clipPath>
</defs>
</svg>
