<svg width="40" height="40" viewBox="0 0 40 40" fill="none" xmlns="http://www.w3.org/2000/svg">
<g clip-path="url(#clip0_1479_1612)">
<path d="M20 40C31.0457 40 40 31.0457 40 20C40 8.9543 31.0457 0 20 0C8.9543 0 0 8.9543 0 20C0 31.0457 8.9543 40 20 40Z" fill="#42A2F5"/>
<path d="M39.7127 23.3972L20 3.68457L13.5343 10.8627L23.1282 20.4565L7.46582 28.6262L18.8046 39.965C19.2 39.9882 19.5987 40.0001 20 40.0001C29.8877 40.0001 38.0996 32.8249 39.7127 23.3972Z" fill="#0A6DC2"/>
<path d="M22.8134 18.9054V10.8627H26.4657L20 3.68457L13.5343 10.8627H17.1867V18.9054L7.46582 28.6262L11.4445 32.6049L20 24.0494L28.5556 32.6049L32.5343 28.6262L22.8134 18.9054Z" fill="#FFEA80"/>
<path d="M22.8134 18.9054V10.8627H26.4657L20 3.68457V24.0494L28.5555 32.6049L32.5342 28.6262L22.8134 18.9054Z" fill="#FFCC66"/>
</g>
<defs>
<clipPath id="clip0_1479_1612">
<rect width="40" height="40" fill="white"/>
</clipPath>
</defs>
</svg>
