<svg width="44" height="44" viewBox="0 0 44 44" fill="none" xmlns="http://www.w3.org/2000/svg">
<path d="M41.2614 12.6901V9.91651L22 2.7959L20.2812 14.4089L41.2614 12.6901Z" fill="#7D98B3"/>
<path d="M22 2.7959L2.73853 9.91651V12.6901L22 14.4089V2.7959Z" fill="#B9C9D9"/>
<path d="M22 12.6904L20.2812 37.4464L41.2614 35.7277V12.6904H22Z" fill="#B9C9D9"/>
<path d="M2.73853 12.6904V35.7277L22 37.4464V12.6904H2.73853Z" fill="#E6ECF2"/>
<path d="M7.78613 35.727V24.8032C7.78613 23.0394 9.22103 21.6045 10.9848 21.6045C12.7486 21.6045 14.1836 23.0394 14.1836 24.8032V37.4459L7.78613 35.727Z" fill="#335373"/>
<path d="M29.8167 37.4458V24.8032C29.8167 23.0394 31.2516 21.6045 33.0154 21.6045C34.7791 21.6045 36.2141 23.0394 36.2141 24.8032V35.7271L29.8167 37.4458Z" fill="#17294D"/>
<path d="M25.1988 24.8032C25.1988 23.0394 23.7639 21.6045 22 21.6045L20.2812 37.4459L25.1988 35.7271V24.8032Z" fill="#17294D"/>
<path d="M44 15.2686H22L21.1406 16.5576L22 17.8467H44V15.2686Z" fill="#7D98B3"/>
<path d="M0 15.2686H22V17.8467H0V15.2686Z" fill="#B9C9D9"/>
<path d="M18.8013 24.8033V35.7272L21.9999 37.446V21.6045C20.2363 21.6045 18.8013 23.0395 18.8013 24.8033Z" fill="#335373"/>
<path d="M44 38.4662V35.7275H22L20.2812 40.1849L44 38.4662Z" fill="#7D98B3"/>
<path d="M22 35.7275H0V38.4662L22 40.1849V35.7275Z" fill="#B9C9D9"/>
<path d="M22 38.4658L21.1406 39.8351L22 41.2044H44V38.4658H22Z" fill="#B9C9D9"/>
<path d="M0 38.4658H22V41.2044H0V38.4658Z" fill="#E6ECF2"/>
</svg>
