<svg width="44" height="44" viewBox="0 0 44 44" fill="none" xmlns="http://www.w3.org/2000/svg">
<g clip-path="url(#clip0_1479_1602)">
<path d="M14.2656 15.5547C6.44695 15.5547 0 21.9157 0 29.7344C0 37.5531 6.44695 44 14.2656 44C22.0843 44 28.4453 37.5531 28.4453 29.7344C28.4453 21.9157 22.0843 15.5547 14.2656 15.5547Z" fill="#62DBBD"/>
<path d="M28.4453 29.7344C28.4453 21.9157 22.0843 15.5547 14.2656 15.5547V44C22.0843 44 28.4453 37.5531 28.4453 29.7344Z" fill="#23B094"/>
<path d="M18.1329 25.333L14.2657 29.2002L12.9766 30.4893L10.3985 27.9111L8.57568 29.734L12.9766 34.1349L14.2657 32.8458L19.9557 27.1558L18.1329 25.333Z" fill="#F0F7FF"/>
<path d="M18.1328 25.333L14.2656 29.2002V32.8458L19.9556 27.1558L18.1328 25.333Z" fill="#DFE7F4"/>
<path d="M29.7344 0C21.9157 0 15.5547 6.44695 15.5547 14.2656C15.5547 22.0843 21.9157 28.4453 29.7344 28.4453C37.5531 28.4453 44 22.0843 44 14.2656C44 6.44695 37.5531 0 29.7344 0Z" fill="#FF5959"/>
<path d="M44 14.2656C44 6.44695 37.5531 0 29.7344 0V28.4453C37.5531 28.4453 44 22.0843 44 14.2656Z" fill="#E63A57"/>
<path d="M34.1354 11.6871L32.3126 9.86426L29.7344 12.4424L27.1563 9.86426L25.3335 11.6871L27.9116 14.2652L25.3335 16.8433L27.1563 18.6661L29.7344 16.088L32.3126 18.6661L34.1354 16.8433L31.5573 14.2652L34.1354 11.6871Z" fill="#F0F7FF"/>
<path d="M34.1353 16.8433L31.5572 14.2652L34.1353 11.6871L32.3125 9.86426L29.7344 12.4424V16.088L32.3125 18.6661L34.1353 16.8433Z" fill="#DFE7F4"/>
</g>
<defs>
<clipPath id="clip0_1479_1602">
<rect width="44" height="44" fill="white"/>
</clipPath>
</defs>
</svg>
